<svg xmlns="http://www.w3.org/2000/svg" viewBox="0 0 200 200" fill="none">
  <!-- Leaping Horse Line Art -->
  <g stroke="#00A86B" stroke-width="2" stroke-linecap="round" stroke-linejoin="round">
    <!-- Horse body in leaping position -->
    <path d="M 140 100 Q 135 85 125 80 L 120 75 Q 118 72 115 70 L 110 68 Q 105 67 100 68 L 95 70 Q 90 73 85 78 L 80 85 Q 75 92 72 100 L 70 110 Q 68 120 70 130 L 75 140 Q 80 145 85 148" fill="none"/>
    
    <!-- Horse head and neck -->
    <path d="M 125 80 Q 130 75 135 72 L 142 70 Q 148 69 153 70 L 158 73 Q 161 76 162 80 L 163 85 Q 162 90 160 93" fill="none"/>
    
    <!-- Horse mane flowing -->
    <path d="M 135 72 Q 138 65 140 60 M 140 68 Q 143 62 145 58 M 145 70 Q 148 64 150 60" fill="none"/>
    
    <!-- Front legs extended forward (leaping) -->
    <path d="M 110 68 Q 108 75 107 85 L 108 95 Q 110 105 113 115" fill="none"/>
    <path d="M 100 68 Q 98 78 98 90 L 100 102 Q 103 112 107 120" fill="none"/>
    
    <!-- Back legs extended backward (powerful leap) -->
    <path d="M 72 100 Q 68 105 65 112 L 60 122 Q 57 130 55 138" fill="none"/>
    <path d="M 70 110 Q 66 118 63 128 L 58 140 Q 55 148 53 155" fill="none"/>
    
    <!-- Tail flowing backward -->
    <path d="M 75 140 Q 70 145 65 152 L 58 162 Q 53 170 50 178" fill="none"/>
    <path d="M 70 145 Q 65 152 60 160 L 53 170 Q 48 178 45 185" fill="none"/>
    
    <!-- Horse eye -->
    <circle cx="155" cy="77" r="2" fill="#00A86B"/>
    
    <!-- Nostril -->
    <circle cx="161" cy="85" r="1.5" fill="none"/>
    
    <!-- Ear -->
    <path d="M 150 70 Q 152 65 155 63 Q 157 65 157 68" fill="none"/>
  </g>
  
  <!-- Subtle circular frame (optional) -->
  <circle cx="100" cy="100" r="95" stroke="#00A86B" stroke-width="1.5" fill="none" opacity="0.3"/>
</svg>
